HIERARCHY
ROOT Hips
{
	OFFSET 0.00000 0.00000 0.00000
	CHANNELS 6 Xposition Yposition Zposition Zrotation Yrotation Xrotation 
	JOINT LHipJoint
	{
		OFFSET 0 0 0
		CHANNELS 3 Zrotation Yrotation Xrotation
		JOINT LeftUpLeg
		{
			OFFSET 1.37733 -1.58235 0.71371
			CHANNELS 3 Zrotation Yrotation Xrotation
			JOINT LeftLeg
			{
				OFFSET 2.33951 -6.42775 0.00000
				CHANNELS 3 Zrotation Yrotation Xrotation
				JOINT LeftFoot
				{
					OFFSET 2.30523 -6.33358 0.00000
					CHANNELS 3 Zrotation Yrotation Xrotation
					JOINT LeftToeBase
					{
						OFFSET 0.05388 -0.14857 1.53863
						CHANNELS 3 Zrotation Yrotation Xrotation
						End Site
						{
							OFFSET 0.00000 -0.00000 0.79208
						}
					}
				}
			}
		}
	}
	JOINT RHipJoint
	{
		OFFSET 0 0 0
		CHANNELS 3 Zrotation Yrotation Xrotation
		JOINT RightUpLeg
		{
			OFFSET -1.47839 -1.58235 0.71371
			CHANNELS 3 Zrotation Yrotation Xrotation
			JOINT RightLeg
			{
				OFFSET -2.26534 -6.22397 0.00000
				CHANNELS 3 Zrotation Yrotation Xrotation
				JOINT RightFoot
				{
					OFFSET -2.27037 -6.23779 0.00000
					CHANNELS 3 Zrotation Yrotation Xrotation
					JOINT RightToeBase
					{
						OFFSET -0.09543 -0.26220 1.62615
						CHANNELS 3 Zrotation Yrotation Xrotation
						End Site
						{
							OFFSET -0.00000 -0.00000 0.83991
						}
					}
				}
			}
		}
	}
	JOINT LowerBack
	{
		OFFSET 0 0 0
		CHANNELS 3 Zrotation Yrotation Xrotation
		JOINT Spine
		{
			OFFSET 0.00101 1.81877 -0.00412
			CHANNELS 3 Zrotation Yrotation Xrotation
			JOINT Spine1
			{
				OFFSET 0.00322 1.81934 -0.03962
				CHANNELS 3 Zrotation Yrotation Xrotation
				JOINT Neck
				{
					OFFSET 0 0 0
					CHANNELS 3 Zrotation Yrotation Xrotation
					JOINT Neck1
					{
						OFFSET -0.13795 1.66192 0.22650
						CHANNELS 3 Zrotation Yrotation Xrotation
						JOINT Head
						{
							OFFSET 0.14844 1.65995 -0.39123
							CHANNELS 3 Zrotation Yrotation Xrotation
							End Site
							{
								OFFSET 0.04109 1.72502 -0.16783
							}
						}
					}
				}
				JOINT LeftShoulder
				{
					OFFSET 0 0 0
					CHANNELS 3 Zrotation Yrotation Xrotation
					JOINT LeftArm
					{
						OFFSET 3.25446 1.41983 0.32106
						CHANNELS 3 Zrotation Yrotation Xrotation
						JOINT LeftForeArm
						{
							OFFSET 4.05444 -0.00000 -0.00000
							CHANNELS 3 Zrotation Yrotation Xrotation
							JOINT LeftHand
							{
								OFFSET 3.21205 -0.00000 0.00000
								CHANNELS 3 Zrotation Yrotation Xrotation
								JOINT LeftFingerBase
								{
									OFFSET 0 0 0
									CHANNELS 3 Zrotation Yrotation Xrotation
									JOINT LeftHandIndex1
									{
										OFFSET 0.70741 -0.00000 0.00000
										CHANNELS 3 Zrotation Yrotation Xrotation
										End Site
										{
											OFFSET 0.57033 -0.00000 0.00000
										}
									}
								}
								JOINT LThumb
								{
									OFFSET 0 0 0
									CHANNELS 3 Zrotation Yrotation Xrotation
									End Site
									{
										OFFSET 0.57904 -0.00000 0.57904
									}
								}
							}
						}
					}
				}
				JOINT RightShoulder
				{
					OFFSET 0 0 0
					CHANNELS 3 Zrotation Yrotation Xrotation
					JOINT RightArm
					{
						OFFSET -3.30007 1.25485 0.33947
						CHANNELS 3 Zrotation Yrotation Xrotation
						JOINT RightForeArm
						{
							OFFSET -3.74048 -0.00000 -0.00000
							CHANNELS 3 Zrotation Yrotation Xrotation
							JOINT RightHand
							{
								OFFSET -3.16030 -0.00000 0.00000
								CHANNELS 3 Zrotation Yrotation Xrotation
								JOINT RightFingerBase
								{
									OFFSET 0 0 0
									CHANNELS 3 Zrotation Yrotation Xrotation
									JOINT RightHandIndex1
									{
										OFFSET -0.71703 -0.00000 0.00000
										CHANNELS 3 Zrotation Yrotation Xrotation
										End Site
										{
											OFFSET -0.57809 -0.00000 0.00000
										}
									}
								}
								JOINT RThumb
								{
									OFFSET 0 0 0
									CHANNELS 3 Zrotation Yrotation Xrotation
									End Site
									{
										OFFSET -0.58691 -0.00000 0.58691
									}
								}
							}
						}
					}
				}
			}
		}
	}
}
MOTION
Frames: 12
Frame Time: .0083333
9.9518 14.6452 3.5407 -191.3860 88.3472 -195.9110 0.0000 0.0000 0.0000 -7.5327 1.6613 -21.6846 8.8581 16.7156 55.5982 0.7204 12.9526 16.4924 0.9643 -6.2525 -17.5189 0.0000 0.0000 0.0000 10.9339 -4.4106 -19.6531 -8.3346 -16.3599 53.7591 -0.0368 9.8350 14.6042 -0.8743 5.9615 -16.6729 -0.0891 -0.5075 0.2494 0.2299 -0.6674 1.7842 0.2772 -0.3316 1.6906 -14.6019 -13.3413 -18.9652 9.9086 -17.0915 23.4646 3.0125 -7.6599 13.1939 -0.0000 0.0000 0.0000 -0.0000 0.0000 -0.0000 -0.0000 0.0000 -0.0000 -0.0000 -0.0000 0.0000 -0.0000 -0.0000 0.0000 -0.0000 -0.0000 0.0000 0.0000 0.0000 0.0000 -0.0000 0.0000 0.0000 0.0000 -0.0000 -0.0000 0.0000 -0.0000 -0.0000 0.0000 0.0000 0.0000 0.0000 0.0000 0.0000 0.0000 0.0000 0.0000 0.0000 -0.0000 0.0000
9.9493 14.6461 3.5423 -191.0380 88.3340 -195.6060 0.0000 0.0000 0.0000 -7.5231 1.6727 -21.6491 8.8425 16.7053 55.5437 0.7077 12.9869 16.3943 1.0063 -6.3832 -17.9003 0.0000 0.0000 0.0000 10.9088 -4.4265 -19.5930 -8.3186 -16.3487 53.7024 0.0129 10.1882 14.3021 -0.6173 5.0283 -13.9893 -0.0857 -0.5191 0.2749 0.2239 -0.6824 1.8180 0.2691 -0.3388 1.7110 -14.6678 -13.3683 -18.8271 10.0339 -17.1490 23.2741 3.0635 -7.6850 13.1188 -0.0000 -0.0000 0.0000 -0.0000 0.0000 -0.0000 -0.0000 0.0000 -0.0000 -0.0000 -0.0000 0.0000 -0.0000 -0.0000 0.0000 -0.0000 -0.0000 0.0000 0.0000 0.0000 0.0000 -0.0000 -0.0000 0.0000 0.0000 -0.0000 -0.0000 0.0000 -0.0000 -0.0000 0.0000 0.0000 0.0000 0.0000 0.0000 0.0000 0.0000 0.0000 0.0000 0.0000 -0.0000 0.0000
9.9477 14.6465 3.5452 -188.2880 88.3425 -192.9220 0.0000 0.0000 0.0000 -7.4103 1.7132 -21.5932 8.8414 16.7046 55.5399 0.6899 13.1289 16.2896 1.0739 -6.5875 -18.4989 0.0000 0.0000 0.0000 11.0307 -4.4980 -19.4819 -8.2803 -16.3216 53.5662 -0.0231 9.8679 14.4319 -0.8423 5.8541 -16.3615 -0.0325 -0.5385 0.3059 0.2557 -0.7081 1.8802 0.2714 -0.3507 1.7573 -14.7241 -13.3921 -18.7617 10.1207 -17.1850 23.1030 3.0993 -7.7017 13.0576 0.0000 -0.0000 0.0000 -0.0000 0.0000 -0.0000 -0.0000 0.0000 -0.0000 -0.0000 -0.0000 0.0000 -0.0000 -0.0000 0.0000 -0.0000 -0.0000 0.0000 0.0000 0.0000 0.0000 0.0000 -0.0000 0.0000 0.0000 -0.0000 -0.0000 0.0000 -0.0000 -0.0000 0.0000 0.0000 0.0000 0.0000 0.0000 0.0000 0.0000 0.0000 0.0000 0.0000 -0.0000 0.0000
9.9475 14.6466 3.5471 -186.8880 88.3679 -191.5660 0.0000 0.0000 0.0000 -7.3416 1.7920 -21.5463 8.8317 16.6982 55.5064 0.6838 13.1776 16.2541 1.0742 -6.5884 -18.5015 0.0000 0.0000 0.0000 11.1208 -4.5435 -19.3419 -8.2265 -16.2834 53.3745 -0.0568 9.5756 14.5696 -1.0981 6.6588 -18.7085 -0.0252 -0.5569 0.3248 0.2918 -0.7330 1.8947 0.3041 -0.3632 1.7621 -14.8309 -13.3980 -18.6254 10.2003 -17.1927 22.9985 3.1498 -7.7125 13.0101 -0.0000 -0.0000 0.0000 -0.0000 0.0000 -0.0000 -0.0000 0.0000 -0.0000 -0.0000 -0.0000 0.0000 -0.0000 -0.0000 0.0000 -0.0000 -0.0000 0.0000 0.0000 0.0000 0.0000 -0.0000 -0.0000 0.0000 0.0000 -0.0000 -0.0000 0.0000 -0.0000 -0.0000 0.0000 0.0000 0.0000 0.0000 0.0000 0.0000 0.0000 0.0000 0.0000 0.0000 -0.0000 0.0000
9.9465 14.6465 3.5484 -185.0550 88.3961 -189.7310 0.0000 0.0000 0.0000 -7.2570 1.8405 -21.5525 8.8252 16.6939 55.4837 0.6838 13.1332 16.2387 1.0405 -6.4874 -18.2053 0.0000 0.0000 0.0000 11.1708 -4.4833 -19.3598 -8.2402 -16.2931 53.4232 -0.0106 9.9466 14.3403 -0.8132 5.7544 -16.0736 -0.0005 -0.5748 0.3152 0.3211 -0.7578 1.8666 0.3202 -0.3756 1.7389 -14.8960 -13.3951 -18.5233 10.2151 -17.1882 23.0126 3.1712 -7.7180 13.0038 -0.0000 0.0000 0.0000 -0.0000 0.0000 -0.0000 -0.0000 0.0000 -0.0000 -0.0000 -0.0000 0.0000 -0.0000 -0.0000 0.0000 -0.0000 -0.0000 0.0000 0.0000 0.0000 0.0000 -0.0000 0.0000 0.0000 0.0000 -0.0000 -0.0000 0.0000 -0.0000 -0.0000 0.0000 0.0000 0.0000 0.0000 0.0000 0.0000 0.0000 0.0000 0.0000 0.0000 -0.0000 0.0000
9.9444 14.6463 3.5507 -181.2700 88.3793 -185.9280 0.0000 0.0000 0.0000 -7.1063 1.8214 -21.5887 8.8275 16.6954 55.4915 0.6790 13.1002 16.1849 1.0544 -6.5292 -18.3277 0.0000 0.0000 0.0000 11.2653 -4.4800 -19.5158 -8.3029 -16.3376 53.6465 0.0263 10.2623 14.1892 -0.5770 4.8644 -13.5221 0.0663 -0.6039 0.2976 0.3596 -0.7975 1.8630 0.3215 -0.3947 1.7449 -14.8809 -13.4024 -18.5669 10.1539 -17.1814 23.0354 3.1449 -7.7193 13.0118 0.0000 -0.0000 0.0000 -0.0000 0.0000 -0.0000 -0.0000 0.0000 -0.0000 -0.0000 -0.0000 0.0000 -0.0000 -0.0000 0.0000 -0.0000 -0.0000 0.0000 0.0000 0.0000 0.0000 0.0000 -0.0000 0.0000 0.0000 -0.0000 -0.0000 0.0000 -0.0000 -0.0000 0.0000 0.0000 0.0000 0.0000 0.0000 0.0000 0.0000 0.0000 0.0000 0.0000 -0.0000 0.0000
9.9423 14.6467 3.5523 -178.6480 88.3741 -183.3390 0.0000 0.0000 0.0000 -7.0004 1.8285 -21.5731 8.8276 16.6955 55.4919 0.6872 13.0079 16.2249 1.0372 -6.4775 -18.1764 0.0000 0.0000 0.0000 11.3530 -4.5901 -19.5520 -8.3096 -16.3423 53.6704 -0.0080 9.9873 14.3557 -0.7173 5.4121 -15.0878 0.1116 -0.6381 0.3426 0.4012 -0.8436 1.8629 0.3387 -0.4173 1.7199 -14.9209 -13.3963 -18.5705 10.1249 -17.1488 23.0098 3.1465 -7.7130 12.9983 0.0000 0.0000 0.0000 -0.0000 0.0000 -0.0000 -0.0000 0.0000 -0.0000 -0.0000 -0.0000 0.0000 -0.0000 -0.0000 0.0000 -0.0000 -0.0000 0.0000 0.0000 0.0000 0.0000 0.0000 0.0000 0.0000 0.0000 -0.0000 -0.0000 0.0000 -0.0000 -0.0000 0.0000 0.0000 0.0000 0.0000 0.0000 0.0000 0.0000 0.0000 0.0000 0.0000 -0.0000 0.0000
9.9402 14.6475 3.5524 -180.2500 88.4265 -184.9310 0.0000 0.0000 0.0000 -7.0485 1.8779 -21.5940 8.8230 16.6925 55.4760 0.6930 12.9051 16.2397 1.0385 -6.4814 -18.1877 0.0000 0.0000 0.0000 11.3093 -4.6249 -19.5657 -8.2782 -16.3201 53.5585 -0.0307 9.7601 14.4062 -0.8471 5.8704 -16.4087 0.0668 -0.6376 0.3365 0.4008 -0.8430 1.8405 0.3634 -0.4178 1.7009 -14.9512 -13.3965 -18.5340 10.0630 -17.1293 23.0429 3.1335 -7.7157 12.9977 -0.0000 0.0000 0.0000 -0.0000 0.0000 -0.0000 -0.0000 0.0000 -0.0000 -0.0000 -0.0000 0.0000 -0.0000 -0.0000 0.0000 -0.0000 -0.0000 0.0000 0.0000 0.0000 0.0000 -0.0000 0.0000 0.0000 0.0000 -0.0000 -0.0000 0.0000 -0.0000 -0.0000 0.0000 0.0000 0.0000 0.0000 0.0000 0.0000 0.0000 0.0000 0.0000 0.0000 -0.0000 0.0000
9.9377 14.6485 3.5524 -184.1840 88.4470 -188.8160 0.0000 0.0000 0.0000 -7.1706 1.9186 -21.6618 8.8196 16.6902 55.4642 0.6713 12.9725 16.0744 1.1361 -6.7694 -19.0339 0.0000 0.0000 0.0000 11.1866 -4.6388 -19.6330 -8.2728 -16.3162 53.5393 -0.0397 9.6578 14.4102 -0.8964 6.0343 -16.8839 -0.0256 -0.6225 0.2759 0.3550 -0.8222 1.8340 0.3679 -0.4087 1.7288 -14.8861 -13.4121 -18.5622 9.9442 -17.1384 23.1061 3.0756 -7.7265 13.0095 -0.0000 -0.0000 0.0000 -0.0000 0.0000 -0.0000 -0.0000 0.0000 -0.0000 -0.0000 -0.0000 0.0000 -0.0000 -0.0000 0.0000 -0.0000 -0.0000 0.0000 0.0000 0.0000 0.0000 -0.0000 -0.0000 0.0000 0.0000 -0.0000 -0.0000 0.0000 -0.0000 -0.0000 0.0000 0.0000 0.0000 0.0000 0.0000 0.0000 0.0000 0.0000 0.0000 0.0000 -0.0000 0.0000
9.9358 14.6492 3.5532 -186.5410 88.4392 -191.1950 0.0000 0.0000 0.0000 -7.2349 1.9464 -21.6451 8.8071 16.6820 55.4207 0.6654 12.9658 16.0205 1.1002 -6.6650 -18.7266 0.0000 0.0000 0.0000 11.1108 -4.6787 -19.6225 -8.2831 -16.3236 53.5760 -0.0555 9.5329 14.4934 -0.9785 6.2969 -17.6482 -0.0884 -0.6237 0.2732 0.3206 -0.8227 1.8575 0.3675 -0.4095 1.7548 -14.8606 -13.4198 -18.5866 9.9249 -17.1496 23.1163 3.0609 -7.7304 13.0150 -0.0000 0.0000 0.0000 -0.0000 0.0000 -0.0000 -0.0000 0.0000 -0.0000 -0.0000 -0.0000 0.0000 -0.0000 -0.0000 0.0000 -0.0000 -0.0000 0.0000 0.0000 0.0000 0.0000 -0.0000 0.0000 0.0000 0.0000 -0.0000 -0.0000 0.0000 -0.0000 -0.0000 0.0000 0.0000 0.0000 0.0000 0.0000 0.0000 0.0000 0.0000 0.0000 0.0000 -0.0000 0.0000
9.9352 14.6492 3.5541 -189.0250 88.4547 -193.7140 0.0000 0.0000 0.0000 -7.2982 1.9778 -21.5871 8.7911 16.6714 55.3649 0.6607 13.0422 16.0060 1.0970 -6.6555 -18.6988 0.0000 0.0000 0.0000 11.0285 -4.6917 -19.6128 -8.2981 -16.3342 53.6294 -0.0590 9.5043 14.5090 -0.9686 6.2658 -17.5575 -0.1664 -0.6041 0.2583 0.2889 -0.7957 1.8573 0.3790 -0.3971 1.7633 -14.8866 -13.4091 -18.4993 9.9781 -17.1541 23.1190 3.0886 -7.7312 13.0087 0.0000 -0.0000 0.0000 -0.0000 0.0000 -0.0000 -0.0000 0.0000 -0.0000 -0.0000 -0.0000 0.0000 -0.0000 -0.0000 0.0000 -0.0000 -0.0000 0.0000 0.0000 0.0000 0.0000 0.0000 -0.0000 0.0000 0.0000 -0.0000 -0.0000 0.0000 -0.0000 -0.0000 0.0000 0.0000 0.0000 0.0000 0.0000 0.0000 0.0000 0.0000 0.0000 0.0000 -0.0000 0.0000
9.9343 14.6486 3.5540 -190.1990 88.4525 -194.8980 0.0000 0.0000 0.0000 -7.3367 1.9867 -21.5851 8.8003 16.6775 55.3969 0.6278 13.3865 15.8424 1.3027 -7.2307 -20.4008 0.0000 0.0000 0.0000 10.9861 -4.7105 -19.6210 -8.3020 -16.3369 53.6433 -0.0576 9.4863 14.4633 -0.9602 6.2395 -17.4809 -0.1801 -0.5691 0.1895 0.2363 -0.7485 1.8487 0.3327 -0.3734 1.7922 -14.8585 -13.3921 -18.3308 10.0011 -17.1658 23.1006 3.0999 -7.7379 12.9696 0.0000 -0.0000 0.0000 -0.0000 0.0000 -0.0000 -0.0000 0.0000 -0.0000 -0.0000 -0.0000 0.0000 -0.0000 -0.0000 0.0000 -0.0000 -0.0000 0.0000 0.0000 0.0000 0.0000 0.0000 -0.0000 0.0000 0.0000 -0.0000 -0.0000 0.0000 -0.0000 -0.0000 0.0000 0.0000 0.0000 0.0000 0.0000 0.0000 0.0000 0.0000 0.0000 0.0000 -0.0000 0.0000
